<mxfile host="app.diagrams.net" modified="2023-03-20T03:57:56.010Z" agent="5.0 (Windows NT 10.0; Win64; x64) AppleWebKit/537.36 (KHTML, like Gecko) Chrome/111.0.0.0 Safari/537.36" etag="0qrXFoUgxwlLbveJsOlS" version="21.0.6" type="github">
  <diagram name="第 1 页" id="xnPECPFeQbH-HKYmZ7HG">
    <mxGraphModel dx="2154" dy="804" grid="1" gridSize="10" guides="1" tooltips="1" connect="1" arrows="1" fold="1" page="1" pageScale="1" pageWidth="827" pageHeight="1169" math="0" shadow="0">
      <root>
        <mxCell id="0" />
        <mxCell id="1" parent="0" />
        <mxCell id="lo_FjwMSJ8QqFOTfhPGc-1" value="" style="rounded=1;whiteSpace=wrap;html=1;fillColor=#dae8fc;strokeColor=#6c8ebf;" parent="1" vertex="1">
          <mxGeometry x="-481" y="730" width="360" height="250" as="geometry" />
        </mxCell>
        <mxCell id="lo_FjwMSJ8QqFOTfhPGc-5" value="" style="edgeStyle=orthogonalEdgeStyle;rounded=0;orthogonalLoop=1;jettySize=auto;html=1;" parent="1" source="lo_FjwMSJ8QqFOTfhPGc-2" target="lo_FjwMSJ8QqFOTfhPGc-3" edge="1">
          <mxGeometry relative="1" as="geometry" />
        </mxCell>
        <mxCell id="lo_FjwMSJ8QqFOTfhPGc-2" value="&lt;font face=&quot;Comic Sans MS&quot; style=&quot;font-size: 16px;&quot;&gt;下发报告配置&lt;/font&gt;" style="strokeWidth=2;html=1;shape=mxgraph.flowchart.start_1;whiteSpace=wrap;fillColor=#dae8fc;strokeColor=#6c8ebf;comic=1;" parent="1" vertex="1">
          <mxGeometry x="250" y="430" width="120" height="60" as="geometry" />
        </mxCell>
        <mxCell id="lo_FjwMSJ8QqFOTfhPGc-7" style="edgeStyle=orthogonalEdgeStyle;rounded=0;orthogonalLoop=1;jettySize=auto;html=1;entryX=0.5;entryY=0;entryDx=0;entryDy=0;" parent="1" source="lo_FjwMSJ8QqFOTfhPGc-3" target="lo_FjwMSJ8QqFOTfhPGc-12" edge="1">
          <mxGeometry relative="1" as="geometry">
            <mxPoint x="175" y="680" as="targetPoint" />
          </mxGeometry>
        </mxCell>
        <mxCell id="lo_FjwMSJ8QqFOTfhPGc-8" style="edgeStyle=orthogonalEdgeStyle;rounded=0;orthogonalLoop=1;jettySize=auto;html=1;entryX=0.5;entryY=0;entryDx=0;entryDy=0;" parent="1" source="lo_FjwMSJ8QqFOTfhPGc-3" target="lo_FjwMSJ8QqFOTfhPGc-6" edge="1">
          <mxGeometry relative="1" as="geometry" />
        </mxCell>
        <mxCell id="lo_FjwMSJ8QqFOTfhPGc-3" value="&lt;font style=&quot;font-size: 16px;&quot;&gt;上报类型?&lt;/font&gt;" style="strokeWidth=2;html=1;shape=mxgraph.flowchart.decision;whiteSpace=wrap;fillColor=#dae8fc;strokeColor=#6c8ebf;comic=1;" parent="1" vertex="1">
          <mxGeometry x="260" y="535" width="100" height="100" as="geometry" />
        </mxCell>
        <mxCell id="lo_FjwMSJ8QqFOTfhPGc-14" value="" style="edgeStyle=orthogonalEdgeStyle;rounded=0;orthogonalLoop=1;jettySize=auto;html=1;" parent="1" source="lo_FjwMSJ8QqFOTfhPGc-6" target="lo_FjwMSJ8QqFOTfhPGc-13" edge="1">
          <mxGeometry relative="1" as="geometry" />
        </mxCell>
        <mxCell id="lo_FjwMSJ8QqFOTfhPGc-6" value="&lt;div style=&quot;&quot;&gt;&lt;span style=&quot;font-size: 16px; background-color: initial;&quot;&gt;&lt;b&gt;Notify：&lt;/b&gt;&lt;/span&gt;&lt;/div&gt;&lt;span style=&quot;font-size: 16px;&quot;&gt;&lt;div style=&quot;&quot;&gt;&lt;span style=&quot;background-color: initial;&quot;&gt;通知安全设备即时上报，参数type:instant,oprCode:日志/事件操作码&lt;/span&gt;&lt;/div&gt;&lt;div style=&quot;&quot;&gt;&lt;span style=&quot;background-color: initial;&quot;&gt;&lt;br&gt;&lt;/span&gt;&lt;/div&gt;&lt;div style=&quot;&quot;&gt;&lt;span style=&quot;background-color: initial;&quot;&gt;&lt;br&gt;&lt;/span&gt;&lt;/div&gt;&lt;div style=&quot;&quot;&gt;&lt;span style=&quot;background-color: initial;&quot;&gt;&lt;br&gt;&lt;/span&gt;&lt;/div&gt;&lt;div style=&quot;&quot;&gt;&lt;span style=&quot;background-color: initial;&quot;&gt;&lt;br&gt;&lt;/span&gt;&lt;/div&gt;&lt;/span&gt;" style="rounded=1;whiteSpace=wrap;html=1;absoluteArcSize=1;arcSize=14;strokeWidth=2;fillColor=#f8cecc;strokeColor=#b85450;comic=1;align=left;" parent="1" vertex="1">
          <mxGeometry x="215" y="670" width="215" height="180" as="geometry" />
        </mxCell>
        <mxCell id="lo_FjwMSJ8QqFOTfhPGc-9" value="&lt;span style=&quot;color: rgb(0, 0, 0); font-style: normal; font-variant-ligatures: normal; font-variant-caps: normal; font-weight: 400; letter-spacing: normal; orphans: 2; text-align: center; text-indent: 0px; text-transform: none; widows: 2; word-spacing: 0px; -webkit-text-stroke-width: 0px; background-color: rgb(251, 251, 251); text-decoration-thickness: initial; text-decoration-style: initial; text-decoration-color: initial; float: none; display: inline !important;&quot;&gt;&lt;font style=&quot;font-size: 16px;&quot; face=&quot;Comic Sans MS&quot;&gt;Loop&lt;/font&gt;&lt;/span&gt;" style="text;whiteSpace=wrap;html=1;" parent="1" vertex="1">
          <mxGeometry x="200" y="550" width="60" height="40" as="geometry" />
        </mxCell>
        <mxCell id="lo_FjwMSJ8QqFOTfhPGc-10" value="&lt;span style=&quot;color: rgb(0, 0, 0); font-size: 16px; font-style: normal; font-variant-ligatures: normal; font-variant-caps: normal; font-weight: 400; letter-spacing: normal; orphans: 2; text-align: center; text-indent: 0px; text-transform: none; widows: 2; word-spacing: 0px; -webkit-text-stroke-width: 0px; background-color: rgb(251, 251, 251); text-decoration-thickness: initial; text-decoration-style: initial; text-decoration-color: initial; float: none; display: inline !important;&quot;&gt;&lt;font face=&quot;Comic Sans MS&quot;&gt;Instant&lt;/font&gt;&lt;/span&gt;" style="text;whiteSpace=wrap;html=1;" parent="1" vertex="1">
          <mxGeometry x="330" y="620" width="80" height="40" as="geometry" />
        </mxCell>
        <mxCell id="lo_FjwMSJ8QqFOTfhPGc-23" value="" style="edgeStyle=orthogonalEdgeStyle;rounded=0;orthogonalLoop=1;jettySize=auto;html=1;" parent="1" source="lo_FjwMSJ8QqFOTfhPGc-12" target="lo_FjwMSJ8QqFOTfhPGc-15" edge="1">
          <mxGeometry relative="1" as="geometry" />
        </mxCell>
        <mxCell id="lo_FjwMSJ8QqFOTfhPGc-12" value="&lt;div style=&quot;text-align: left;&quot;&gt;&lt;b style=&quot;font-size: 16px; background-color: initial;&quot;&gt;Notify：&lt;/b&gt;&lt;/div&gt;&lt;span style=&quot;font-size: 16px;&quot;&gt;&lt;div style=&quot;text-align: left;&quot;&gt;&lt;span style=&quot;background-color: initial;&quot;&gt;通知安全设备循环定时上报，参数type:loop，period:60，oprCode:日志/事件操作码；&lt;br&gt;&amp;nbsp;// 安全设备查询过去60s的日志，等收到cbb再次发的Notify接口，上报日志给安管cbb&lt;/span&gt;&lt;/div&gt;&lt;/span&gt;" style="rounded=1;whiteSpace=wrap;html=1;absoluteArcSize=1;arcSize=14;strokeWidth=2;fillColor=#f8cecc;strokeColor=#b85450;comic=1;" parent="1" vertex="1">
          <mxGeometry x="-55" y="660" width="200" height="190" as="geometry" />
        </mxCell>
        <mxCell id="lo_FjwMSJ8QqFOTfhPGc-18" value="" style="edgeStyle=orthogonalEdgeStyle;rounded=0;orthogonalLoop=1;jettySize=auto;html=1;" parent="1" source="lo_FjwMSJ8QqFOTfhPGc-13" target="lo_FjwMSJ8QqFOTfhPGc-17" edge="1">
          <mxGeometry relative="1" as="geometry" />
        </mxCell>
        <mxCell id="lo_FjwMSJ8QqFOTfhPGc-22" value="" style="edgeStyle=orthogonalEdgeStyle;rounded=0;orthogonalLoop=1;jettySize=auto;html=1;" parent="1" source="lo_FjwMSJ8QqFOTfhPGc-13" target="lo_FjwMSJ8QqFOTfhPGc-15" edge="1">
          <mxGeometry relative="1" as="geometry" />
        </mxCell>
        <mxCell id="lo_FjwMSJ8QqFOTfhPGc-13" value="&lt;span style=&quot;font-size: 16px;&quot;&gt;即时，实现方案：&lt;br&gt;一直监听？&lt;br&gt;查询过去5s的日志？&lt;br&gt;（每个安全设备实现不太一样...）&lt;br&gt;&lt;/span&gt;" style="rounded=1;whiteSpace=wrap;html=1;absoluteArcSize=1;arcSize=14;strokeWidth=2;fillColor=#f8cecc;strokeColor=#b85450;comic=1;" parent="1" vertex="1">
          <mxGeometry x="215" y="900" width="190" height="130" as="geometry" />
        </mxCell>
        <mxCell id="lo_FjwMSJ8QqFOTfhPGc-19" style="edgeStyle=orthogonalEdgeStyle;rounded=0;orthogonalLoop=1;jettySize=auto;html=1;entryX=0;entryY=0.667;entryDx=0;entryDy=0;entryPerimeter=0;exitX=0.5;exitY=1;exitDx=0;exitDy=0;" parent="1" source="lo_FjwMSJ8QqFOTfhPGc-15" target="lo_FjwMSJ8QqFOTfhPGc-17" edge="1">
          <mxGeometry relative="1" as="geometry" />
        </mxCell>
        <mxCell id="lo_FjwMSJ8QqFOTfhPGc-15" value="&lt;font style=&quot;font-size: 16px;&quot;&gt;发送日志到agcbb（goms）&lt;br&gt;-&amp;gt;安管&lt;/font&gt;" style="rounded=1;whiteSpace=wrap;html=1;fillColor=#f8cecc;strokeColor=#b85450;arcSize=14;strokeWidth=2;comic=1;" parent="1" vertex="1">
          <mxGeometry x="-55" y="905" width="200" height="120" as="geometry" />
        </mxCell>
        <mxCell id="lo_FjwMSJ8QqFOTfhPGc-17" value="&lt;font face=&quot;Comic Sans MS&quot;&gt;&lt;span style=&quot;font-size: 16px;&quot;&gt;结束&lt;/span&gt;&lt;/font&gt;" style="strokeWidth=2;html=1;shape=mxgraph.flowchart.start_1;whiteSpace=wrap;fillColor=#dae8fc;strokeColor=#6c8ebf;comic=1;" parent="1" vertex="1">
          <mxGeometry x="250" y="1120" width="120" height="60" as="geometry" />
        </mxCell>
        <mxCell id="chLYD87U9-jSQJkzDu6W-14" style="edgeStyle=orthogonalEdgeStyle;orthogonalLoop=1;jettySize=auto;html=1;entryX=0;entryY=0.5;entryDx=0;entryDy=0;curved=1;" parent="1" source="chLYD87U9-jSQJkzDu6W-1" target="chLYD87U9-jSQJkzDu6W-3" edge="1">
          <mxGeometry relative="1" as="geometry" />
        </mxCell>
        <mxCell id="chLYD87U9-jSQJkzDu6W-1" value="&lt;font face=&quot;Comic Sans MS&quot; style=&quot;font-size: 16px;&quot;&gt;Input&lt;/font&gt;" style="strokeWidth=2;html=1;shape=mxgraph.flowchart.direct_data;whiteSpace=wrap;" parent="1" vertex="1">
          <mxGeometry x="-575" y="810" width="100" height="40" as="geometry" />
        </mxCell>
        <mxCell id="chLYD87U9-jSQJkzDu6W-15" style="edgeStyle=orthogonalEdgeStyle;orthogonalLoop=1;jettySize=auto;html=1;entryX=0.5;entryY=0;entryDx=0;entryDy=0;exitX=1;exitY=0.5;exitDx=0;exitDy=0;curved=1;" parent="1" source="chLYD87U9-jSQJkzDu6W-3" target="chLYD87U9-jSQJkzDu6W-4" edge="1">
          <mxGeometry relative="1" as="geometry" />
        </mxCell>
        <mxCell id="chLYD87U9-jSQJkzDu6W-3" value="&lt;font style=&quot;font-size: 16px;&quot;&gt;Goms Input&lt;/font&gt;" style="rounded=1;whiteSpace=wrap;html=1;comic=1;fillColor=#d5e8d4;strokeColor=#82b366;fontFamily=Comic Sans MS;" parent="1" vertex="1">
          <mxGeometry x="-415" y="740" width="120" height="60" as="geometry" />
        </mxCell>
        <mxCell id="chLYD87U9-jSQJkzDu6W-16" style="edgeStyle=orthogonalEdgeStyle;orthogonalLoop=1;jettySize=auto;html=1;curved=1;" parent="1" source="chLYD87U9-jSQJkzDu6W-4" target="chLYD87U9-jSQJkzDu6W-9" edge="1">
          <mxGeometry relative="1" as="geometry" />
        </mxCell>
        <mxCell id="chLYD87U9-jSQJkzDu6W-4" value="&lt;font face=&quot;Comic Sans MS&quot; style=&quot;font-size: 16px;&quot;&gt;AgCBB Output&lt;/font&gt;" style="rounded=1;whiteSpace=wrap;html=1;comic=1;fillColor=#ffe6cc;strokeColor=#d79b00;" parent="1" vertex="1">
          <mxGeometry x="-320" y="850" width="120" height="60" as="geometry" />
        </mxCell>
        <mxCell id="chLYD87U9-jSQJkzDu6W-9" value="&lt;font face=&quot;Comic Sans MS&quot;&gt;&lt;span style=&quot;font-size: 16px;&quot;&gt;Ag&lt;/span&gt;&lt;/font&gt;" style="strokeWidth=2;html=1;shape=mxgraph.flowchart.direct_data;whiteSpace=wrap;direction=south;" parent="1" vertex="1">
          <mxGeometry x="-280" y="980" width="40" height="100" as="geometry" />
        </mxCell>
        <mxCell id="chLYD87U9-jSQJkzDu6W-17" value="&lt;font style=&quot;font-size: 16px;&quot;&gt;安全设备&lt;/font&gt;" style="text;strokeColor=none;align=center;fillColor=none;html=1;verticalAlign=middle;whiteSpace=wrap;rounded=0;" parent="1" vertex="1">
          <mxGeometry x="-650" y="810" width="75" height="30" as="geometry" />
        </mxCell>
        <mxCell id="chLYD87U9-jSQJkzDu6W-18" value="" style="shape=flexArrow;endArrow=classic;html=1;rounded=0;comic=1;" parent="1" edge="1">
          <mxGeometry width="50" height="50" relative="1" as="geometry">
            <mxPoint x="-60" y="960" as="sourcePoint" />
            <mxPoint x="-110" y="940" as="targetPoint" />
          </mxGeometry>
        </mxCell>
      </root>
    </mxGraphModel>
  </diagram>
</mxfile>
